Coordinates
version=1
nRows=12
nColumns=24
inDegrees=yes

Units are S.I. units (second, meters, Newtons, ...)
Angles are in degrees.

endheader
time	pelvis_tilt	pelvis_list	pelvis_rotation	pelvis_tx	pelvis_ty	pelvis_tz	hip_flexion_r	hip_adduction_r	hip_rotation_r	knee_angle_r	ankle_angle_r	subtalar_angle_r	mtp_angle_r	hip_flexion_l	hip_adduction_l	hip_rotation_l	knee_angle_l	ankle_angle_l	subtalar_angle_l	mtp_angle_l	lumbar_extension	lumbar_bending	lumbar_rotation
      4.98500000	     35.89202490	      5.28326345	      4.69731349	     -0.01333450	      0.64946455	     -0.21886203	    -13.48025142	     -3.86268722	    -13.19189082	     -2.92089061	      9.95942535	      2.56769285	      0.00000000	    -51.75178526	     -0.77615989	      1.20770594	    -18.91556911	     24.48393906	     17.50434616	      0.00000000	    -61.60955630	      1.97397815	    -11.79351807
      4.99000000	     36.14280693	      4.91563327	      4.79738883	     -0.00673801	      0.64930070	     -0.21830034	    -13.54558805	     -3.41031158	    -12.59849376	     -4.08366528	      9.43407406	      2.24069986	      0.00000000	    -51.82726560	     -1.28453103	      1.30581225	    -20.48919998	     23.82533888	     17.54493933	      0.00000000	    -61.72720360	      2.39087657	    -11.53721535
      4.99500000	     36.37544877	      4.50993204	      4.93013684	     -0.00006594	      0.64920261	     -0.21776547	    -13.58795096	     -2.90701675	    -12.10865888	     -5.33986239	      8.90495802	      1.98900301	      0.00000000	    -51.80575830	     -1.83101804	      1.38875383	    -22.19632187	     23.03198466	     17.52786591	      0.00000000	    -61.80978832	      2.85140197	    -11.22801666
      5.00000000	     36.60790006	      4.07445147	      5.01292151	      0.00660551	      0.64914831	     -0.21716305	    -13.60020558	     -2.37556627	    -11.55174777	     -6.68838204	      8.34966673	      1.66323464	      0.00000000	    -51.70827107	     -2.35589130	      1.37872243	    -24.02458770	     22.08984489	     17.53289394	      0.00000000	    -61.89397755	      3.29112477	    -10.90942349
      5.00500000	     36.82082946	      3.61649045	      5.07376964	      0.01328553	      0.64913068	     -0.21654103	    -13.58442650	     -1.82301137	    -11.02640259	     -8.08602027	      7.80933133	      1.37426695	      0.00000000	    -51.50358812	     -2.86914573	      1.30834636	    -25.98762751	     20.99040013	     17.51438812	      0.00000000	    -61.95928218	      3.72460713	    -10.57322352
      5.01000000	     36.98300355	      3.14112629	      5.10707113	      0.02001129	      0.64912578	     -0.21586334	    -13.49654923	     -1.25470159	    -10.42942121	     -9.55383233	      7.31485221	      1.04015456	      0.00000000	    -51.17773274	     -3.36826579	      1.16534373	    -28.03836338	     19.72348466	     17.45455858	      0.00000000	    -61.96422875	      4.13271536	    -10.22778800
      5.01500000	     37.13809638	      2.67218830	      5.15341533	      0.02672873	      0.64916129	     -0.21518805	    -13.42796224	     -0.68626444	     -9.96012875	    -11.00542172	      6.89211667	      0.80141781	      0.00000000	    -50.75367164	     -3.86888598	      1.01121974	    -30.20583909	     18.27440831	     17.33704794	      0.00000000	    -61.96695903	      4.54559957	     -9.89154899
      5.02000000	     37.24824632	      2.20751635	      5.18288116	      0.03345776	      0.64920744	     -0.21448382	    -13.33889957	     -0.12011452	     -9.45929411	    -12.42246288	      6.55058788	      0.55847953	      0.00000000	    -50.19684991	     -4.34935712	      0.82349091	    -32.47351280	     16.64159048	     17.15962414	      0.00000000	    -61.91976412	      4.93618580	     -9.57279469
      5.02500000	     37.38128313	      1.74653175	      5.25624522	      0.04018959	      0.64930275	     -0.21378685	    -13.31728699	      0.45963915	     -9.14713361	    -13.79428237	      6.32224232	      0.36733904	      0.00000000	    -49.59612994	     -4.87391023	      0.59860097	    -34.78686123	     14.82063048	     16.86946767	      0.00000000	    -61.89720575	      5.34548458	     -9.26267276
      5.03000000	     37.48025697	      1.29183404	      5.32493123	      0.04692797	      0.64940374	     -0.21308311	    -13.30472257	      1.03715544	     -8.82233905	    -15.09014930	      6.21633627	      0.17074767	      0.00000000	    -48.88689449	     -5.38796977	      0.36619714	    -37.15379860	     12.82646368	     16.48356453	      0.00000000	    -61.83221066	      5.74868582	     -8.97412269
      5.03500000	     37.54973807	      0.84050273	      5.39430676	      0.05365536	      0.64951728	     -0.21237646	    -13.30527645	      1.61435012	     -8.54091372	    -16.31305404	      6.24907173	     -0.01029761	      0.00000000	    -48.07938227	     -5.90185745	      0.11760782	    -39.54868956	     10.67023485	     15.97650996	      0.00000000	    -61.74415604	      6.14520994	     -8.68945127
      5.04000000	     37.41252362	      0.46036465	      5.36861873	      0.06030080	      0.64952676	     -0.21154249	    -13.06670216	      2.08003824	     -8.16768341	    -17.56026900	      6.50935589	     -0.18556122	      0.00000000	    -46.95629363	     -6.28512538	     -0.13821010	    -42.00789653	      8.38557187	     15.42204681	      0.00000000	    -61.46972741	      6.39252528	     -8.44091066
